<svg width="222" height="30" viewBox="0 0 222 30" fill="none" xmlns="http://www.w3.org/2000/svg">
<path d="M6.84 29.4C4.73333 29.4 3.12 28.8 2 27.6C0.906667 26.4 0.36 24.7067 0.36 22.52V7.48C0.36 5.29333 0.906667 3.6 2 2.4C3.12 1.2 4.73333 0.599998 6.84 0.599998C8.94667 0.599998 10.5467 1.2 11.64 2.4C12.76 3.6 13.32 5.29333 13.32 7.48V10.44H9.16V7.2C9.16 5.46667 8.42667 4.6 6.96 4.6C5.49333 4.6 4.76 5.46667 4.76 7.2V22.84C4.76 24.5467 5.49333 25.4 6.96 25.4C8.42667 25.4 9.16 24.5467 9.16 22.84V18.56H13.32V22.52C13.32 24.7067 12.76 26.4 11.64 27.6C10.5467 28.8 8.94667 29.4 6.84 29.4ZM21.9525 0.999998H26.3525V12.4H31.0725V0.999998H35.4725V29H31.0725V16.4H26.3525V29H21.9525V0.999998ZM48.1494 0.999998H54.1094L58.6694 29H54.2694L53.4694 23.44V23.52H48.4694L47.6694 29H43.5894L48.1494 0.999998ZM52.9494 19.72L50.9894 5.88H50.9094L48.9894 19.72H52.9494ZM66.8041 0.999998H73.3241C75.5907 0.999998 77.2441 1.53333 78.2841 2.6C79.3241 3.64 79.8441 5.25333 79.8441 7.44V9.16C79.8441 12.0667 78.8841 13.9067 76.9641 14.68V14.76C78.0307 15.08 78.7774 15.7333 79.2041 16.72C79.6574 17.7067 79.8841 19.0267 79.8841 20.68V25.6C79.8841 26.4 79.9107 27.0533 79.9641 27.56C80.0174 28.04 80.1507 28.52 80.3641 29H75.8841C75.7241 28.5467 75.6174 28.12 75.5641 27.72C75.5107 27.32 75.4841 26.6 75.4841 25.56V20.44C75.4841 19.16 75.2707 18.2667 74.8441 17.76C74.4441 17.2533 73.7374 17 72.7241 17H71.2041V29H66.8041V0.999998ZM72.8041 13C73.6841 13 74.3374 12.7733 74.7641 12.32C75.2174 11.8667 75.4441 11.1067 75.4441 10.04V7.88C75.4441 6.86667 75.2574 6.13333 74.8841 5.68C74.5374 5.22667 73.9774 5 73.2041 5H71.2041V13H72.8041ZM95.1369 29.4C93.0302 29.4 91.4169 28.8 90.2969 27.6C89.2035 26.4 88.6569 24.7067 88.6569 22.52V7.48C88.6569 5.29333 89.2035 3.6 90.2969 2.4C91.4169 1.2 93.0302 0.599998 95.1369 0.599998C97.2435 0.599998 98.8435 1.2 99.9369 2.4C101.057 3.6 101.617 5.29333 101.617 7.48V10.44H97.4569V7.2C97.4569 5.46667 96.7235 4.6 95.2569 4.6C93.7902 4.6 93.0569 5.46667 93.0569 7.2V22.84C93.0569 24.5467 93.7902 25.4 95.2569 25.4C96.7235 25.4 97.4569 24.5467 97.4569 22.84V18.56H101.617V22.52C101.617 24.7067 101.057 26.4 99.9369 27.6C98.8435 28.8 97.2435 29.4 95.1369 29.4ZM116.649 29.4C114.516 29.4 112.889 28.8 111.769 27.6C110.649 26.3733 110.089 24.6267 110.089 22.36V0.999998H114.489V22.68C114.489 23.64 114.676 24.3333 115.049 24.76C115.449 25.1867 116.009 25.4 116.729 25.4C117.449 25.4 117.996 25.1867 118.369 24.76C118.769 24.3333 118.969 23.64 118.969 22.68V0.999998H123.209V22.36C123.209 24.6267 122.649 26.3733 121.529 27.6C120.409 28.8 118.783 29.4 116.649 29.4ZM135.783 5H131.183V0.999998H144.783V5H140.183V29H135.783V5ZM152.913 0.999998H164.913V5H157.313V12.4H163.353V16.4H157.313V25H164.913V29H152.913V0.999998ZM173.445 0.999998H179.965C182.231 0.999998 183.885 1.53333 184.925 2.6C185.965 3.64 186.485 5.25333 186.485 7.44V9.16C186.485 12.0667 185.525 13.9067 183.605 14.68V14.76C184.671 15.08 185.418 15.7333 185.845 16.72C186.298 17.7067 186.525 19.0267 186.525 20.68V25.6C186.525 26.4 186.551 27.0533 186.605 27.56C186.658 28.04 186.791 28.52 187.005 29H182.525C182.365 28.5467 182.258 28.12 182.205 27.72C182.151 27.32 182.125 26.6 182.125 25.56V20.44C182.125 19.16 181.911 18.2667 181.485 17.76C181.085 17.2533 180.378 17 179.365 17H177.845V29H173.445V0.999998ZM179.445 13C180.325 13 180.978 12.7733 181.405 12.32C181.858 11.8667 182.085 11.1067 182.085 10.04V7.88C182.085 6.86667 181.898 6.13333 181.525 5.68C181.178 5.22667 180.618 5 179.845 5H177.845V13H179.445ZM195.578 0.999998H199.978V29H195.578V0.999998ZM209.273 0.999998H221.273V5H213.673V12.4H219.713V16.4H213.673V25H221.273V29H209.273V0.999998Z" fill="black"/>
</svg>
