<svg width="268" height="37" viewBox="0 0 268 37" fill="none" xmlns="http://www.w3.org/2000/svg">
<path d="M24.6037 12.375C24.3651 11.5455 24.0298 10.8125 23.598 10.1761C23.1662 9.52841 22.6378 8.98295 22.0128 8.53977C21.3991 8.08523 20.6946 7.73864 19.8991 7.5C19.1151 7.26136 18.2457 7.14205 17.2912 7.14205C15.5071 7.14205 13.9389 7.58523 12.5866 8.47159C11.2457 9.35795 10.2003 10.6477 9.45028 12.3409C8.70028 14.0227 8.32528 16.0795 8.32528 18.5114C8.32528 20.9432 8.6946 23.0114 9.43324 24.7159C10.1719 26.4205 11.2173 27.7216 12.5696 28.6193C13.9219 29.5057 15.5185 29.9489 17.3594 29.9489C19.0298 29.9489 20.456 29.6534 21.6378 29.0625C22.831 28.4602 23.7401 27.6136 24.3651 26.5227C25.0014 25.4318 25.3196 24.142 25.3196 22.6534L26.8196 22.875H17.8196V17.3182H32.4276V21.7159C32.4276 24.7841 31.7798 27.4205 30.4844 29.625C29.1889 31.8182 27.4048 33.5114 25.1321 34.7045C22.8594 35.8864 20.2571 36.4773 17.3253 36.4773C14.0526 36.4773 11.1776 35.7557 8.70028 34.3125C6.22301 32.858 4.29119 30.7955 2.90483 28.125C1.52983 25.4432 0.84233 22.2614 0.84233 18.5795C0.84233 15.75 1.25142 13.2273 2.0696 11.0114C2.89915 8.78409 4.05824 6.89773 5.54688 5.35227C7.03551 3.80682 8.76847 2.63068 10.7457 1.82386C12.723 1.01704 14.8651 0.613635 17.1719 0.613635C19.1491 0.613635 20.9901 0.903408 22.6946 1.48295C24.3991 2.05114 25.9105 2.85795 27.2287 3.90341C28.5582 4.94886 29.6435 6.19318 30.4844 7.63636C31.3253 9.06818 31.8651 10.6477 32.1037 12.375H24.6037ZM70.0511 18.5455C70.0511 22.3523 69.3295 25.5909 67.8864 28.2614C66.4545 30.9318 64.5 32.9716 62.0227 34.3807C59.5568 35.7784 56.7841 36.4773 53.7045 36.4773C50.6023 36.4773 47.8182 35.7727 45.3523 34.3636C42.8864 32.9545 40.9375 30.9148 39.5057 28.2443C38.0739 25.5739 37.358 22.3409 37.358 18.5455C37.358 14.7386 38.0739 11.5 39.5057 8.82955C40.9375 6.15909 42.8864 4.125 45.3523 2.72727C47.8182 1.31818 50.6023 0.613635 53.7045 0.613635C56.7841 0.613635 59.5568 1.31818 62.0227 2.72727C64.5 4.125 66.4545 6.15909 67.8864 8.82955C69.3295 11.5 70.0511 14.7386 70.0511 18.5455ZM62.5682 18.5455C62.5682 16.0795 62.1989 14 61.4602 12.3068C60.733 10.6136 59.7045 9.32955 58.375 8.45455C57.0455 7.57955 55.4886 7.14205 53.7045 7.14205C51.9205 7.14205 50.3636 7.57955 49.0341 8.45455C47.7045 9.32955 46.6705 10.6136 45.9318 12.3068C45.2045 14 44.8409 16.0795 44.8409 18.5455C44.8409 21.0114 45.2045 23.0909 45.9318 24.7841C46.6705 26.4773 47.7045 27.7614 49.0341 28.6364C50.3636 29.5114 51.9205 29.9489 53.7045 29.9489C55.4886 29.9489 57.0455 29.5114 58.375 28.6364C59.7045 27.7614 60.733 26.4773 61.4602 24.7841C62.1989 23.0909 62.5682 21.0114 62.5682 18.5455ZM72.5952 7.17614V1.09091H101.266V7.17614H90.5781V36H83.2827V7.17614H72.5952ZM105.987 36V1.09091H113.368V15.4943H128.351V1.09091H135.714V36H128.351V21.5795H113.368V36H105.987ZM141.8 36V1.09091H155.572C158.209 1.09091 160.459 1.5625 162.322 2.50568C164.197 3.4375 165.624 4.76136 166.601 6.47727C167.589 8.18182 168.084 10.1875 168.084 12.4943C168.084 14.8125 167.584 16.8068 166.584 18.4773C165.584 20.1364 164.135 21.4091 162.237 22.2955C160.351 23.1818 158.067 23.625 155.385 23.625H146.163V17.6932H154.192C155.601 17.6932 156.771 17.5 157.703 17.1136C158.635 16.7273 159.328 16.1477 159.783 15.375C160.249 14.6023 160.482 13.642 160.482 12.4943C160.482 11.3352 160.249 10.358 159.783 9.5625C159.328 8.76704 158.629 8.16477 157.686 7.75568C156.754 7.33523 155.578 7.125 154.158 7.125H149.18V36H141.8ZM160.652 20.1136L169.328 36H161.18L152.692 20.1136H160.652ZM173.3 36V1.09091H196.822V7.17614H180.68V15.4943H195.612V21.5795H180.68V29.9148H196.891V36H173.3ZM208.707 36H200.798L212.849 1.09091H222.361L234.395 36H226.486L217.741 9.06818H217.469L208.707 36ZM208.213 22.2784H226.895V28.0398H208.213V22.2784ZM260.159 1.09091H267.54V23.7614C267.54 26.3068 266.932 28.5341 265.716 30.4432C264.511 32.3523 262.824 33.8409 260.653 34.9091C258.483 35.9659 255.955 36.4943 253.068 36.4943C250.17 36.4943 247.636 35.9659 245.466 34.9091C243.295 33.8409 241.608 32.3523 240.403 30.4432C239.199 28.5341 238.597 26.3068 238.597 23.7614V1.09091H245.977V23.1307C245.977 24.4602 246.267 25.642 246.847 26.6761C247.438 27.7102 248.267 28.5227 249.335 29.1136C250.403 29.7045 251.648 30 253.068 30C254.5 30 255.744 29.7045 256.801 29.1136C257.869 28.5227 258.693 27.7102 259.273 26.6761C259.864 25.642 260.159 24.4602 260.159 23.1307V1.09091Z" fill="white"/>
</svg>
